# xmcd
#
# Track frame offsets:
#	150
#	42100
#	54798
#	72140
#	89075
#	115969
#	146558
#	156941
#	170858
#	200070
#	221323
#	248817
#
# Disc length: 3606 seconds
#
# Revision: 1
# Processed by: cddbd v1.5.2PL0 Copyright (c) Steve Scherf et al.
# Submitted via: audiograbber 1.83.01
#
DISCID=af0e140c
DTITLE=Grateful Dead - 70-04-24A Mammoth Gardens, Denver CO
DYEAR=1900
DGENRE=
TTITLE0=I Know You Rider
TTITLE1=Monkey and The Engineer
TTITLE2=Friend Of The Devil
TTITLE3=Me and My Uncle
TTITLE4=Candyman
TTITLE5=Uncle John's Band
TTITLE6=Casey Jones
TTITLE7=Mama Tried
TTITLE8=Hard To Handle
TTITLE9=China Cat Sunflower
TTITLE10=I Know You Rider
TTITLE11=New Speedway Boogie
EXTD=
EXTT0=
EXTT1=
EXTT2=
EXTT3=
EXTT4=
EXTT5=
EXTT6=
EXTT7=
EXTT8=
EXTT9=
EXTT10=
EXTT11=
PLAYORDER=
